 <svg
                                width="18"
                                height="18"
                                viewBox="0 0 18 18"
                                fill="none"
                                xmlns="http://www.w3.org/2000/svg"
                              >
                                <path
                                  d="M14.75 7.5C14.75 9.72306 13.2968 11.9167 11.649 13.656C10.8456 14.504 10.0388 15.1992 9.43176 15.6826C9.27222 15.8096 9.12703 15.9216 9 16.0174C8.87297 15.9216 8.72778 15.8096 8.56824 15.6826C7.96117 15.1992 7.15436 14.504 6.35095 13.656C4.70324 11.9167 3.25 9.72306 3.25 7.5C3.25 5.97501 3.8558 4.51247 4.93414 3.43414C6.01247 2.3558 7.47501 1.75 9 1.75C10.525 1.75 11.9875 2.3558 13.0659 3.43414C14.1442 4.51247 14.75 5.97501 14.75 7.5Z"
                                  stroke="#FFB800"
                                  stroke-width="2"
                                  stroke-linecap="round"
                                  stroke-linejoin="round"
                                ></path>
                                <path
                                  d="M10.25 7.5C10.25 8.19036 9.69036 8.75 9 8.75C8.30964 8.75 7.75 8.19036 7.75 7.5C7.75 6.80964 8.30964 6.25 9 6.25C9.69036 6.25 10.25 6.80964 10.25 7.5Z"
                                  stroke="#FFB800"
                                  stroke-width="2"
                                  stroke-linecap="round"
                                  stroke-linejoin="round"
                                ></path>
                              </svg>