<svg width="18" height="22" viewBox="0 0 18 22" fill="none" xmlns="http://www.w3.org/2000/svg">
                            <path d="M13.5 6.5C12.9033 6.5 12.331 6.26295 11.909 5.84099C11.4871 5.41903 11.25 4.84674 11.25 4.25V0.5H3C2.40326 0.5 1.83097 0.737053 1.40901 1.15901C0.987053 1.58097 0.75 2.15326 0.75 2.75V19.25C0.75 19.8467 0.987053 20.419 1.40901 20.841C1.83097 21.2629 2.40326 21.5 3 21.5H15C15.5967 21.5 16.169 21.2629 16.591 20.841C17.0129 20.419 17.25 19.8467 17.25 19.25V6.5H13.5ZM6.75 4.25C7.19501 4.25 7.63002 4.38196 8.00003 4.62919C8.37004 4.87643 8.65843 5.22783 8.82873 5.63896C8.99903 6.0501 9.04358 6.5025 8.95677 6.93895C8.86995 7.37541 8.65566 7.77632 8.34099 8.09099C8.02632 8.40566 7.62541 8.61995 7.18895 8.70677C6.7525 8.79358 6.3001 8.74903 5.88896 8.57873C5.47783 8.40843 5.12643 8.12004 4.87919 7.75003C4.63196 7.38002 4.5 6.94501 4.5 6.5C4.5 5.90326 4.73705 5.33097 5.15901 4.90901C5.58097 4.48705 6.15326 4.25 6.75 4.25V4.25ZM3.75 11.75C3.75 11.1533 3.98705 10.581 4.40901 10.159C4.83097 9.73705 5.40326 9.5 6 9.5H7.5C8.09674 9.5 8.66903 9.73705 9.09099 10.159C9.51295 10.581 9.75 11.1533 9.75 11.75V13.25C9.75 13.4489 9.67098 13.6397 9.53033 13.7803C9.38968 13.921 9.19891 14 9 14H4.5C4.30109 14 4.11032 13.921 3.96967 13.7803C3.82902 13.6397 3.75 13.4489 3.75 13.25V11.75ZM13.5 17.75H4.5C4.30109 17.75 4.11032 17.671 3.96967 17.5303C3.82902 17.3897 3.75 17.1989 3.75 17C3.75 16.8011 3.82902 16.6103 3.96967 16.4697C4.11032 16.329 4.30109 16.25 4.5 16.25H13.5C13.6989 16.25 13.8897 16.329 14.0303 16.4697C14.171 16.6103 14.25 16.8011 14.25 17C14.25 17.1989 14.171 17.3897 14.0303 17.5303C13.8897 17.671 13.6989 17.75 13.5 17.75ZM13.5 14H12C11.8011 14 11.6103 13.921 11.4697 13.7803C11.329 13.6397 11.25 13.4489 11.25 13.25C11.25 13.0511 11.329 12.8603 11.4697 12.7197C11.6103 12.579 11.8011 12.5 12 12.5H13.5C13.6989 12.5 13.8897 12.579 14.0303 12.7197C14.171 12.8603 14.25 13.0511 14.25 13.25C14.25 13.4489 14.171 13.6397 14.0303 13.7803C13.8897 13.921 13.6989 14 13.5 14ZM13.5 10.25H12C11.8011 10.25 11.6103 10.171 11.4697 10.0303C11.329 9.88968 11.25 9.69891 11.25 9.5C11.25 9.30109 11.329 9.11032 11.4697 8.96967C11.6103 8.82902 11.8011 8.75 12 8.75H13.5C13.6989 8.75 13.8897 8.82902 14.0303 8.96967C14.171 9.11032 14.25 9.30109 14.25 9.5C14.25 9.69891 14.171 9.88968 14.0303 10.0303C13.8897 10.171 13.6989 10.25 13.5 10.25Z" fill="#878787"/>
                            <path d="M13.5 5H16.815L12.75 0.934998V4.25C12.75 4.44891 12.829 4.63968 12.9697 4.78033C13.1103 4.92098 13.3011 5 13.5 5Z" fill="#878787"/>
                        </svg>