<svg width="24" height="24" viewBox="0 0 24 24" fill="none" xmlns="http://www.w3.org/2000/svg">
                            <g clip-path="url(#clip0_151_17)">
                            <path d="M17.672 0.749451H2.10938C0.945938 0.749451 0 1.69586 0 2.85883V14.1089C0 15.2724 0.945938 16.2183 2.10938 16.2183C3.58547 16.2183 3.78375 16.2183 3.78375 16.2183H4.21875V19.734C4.21875 20.3612 4.97906 20.671 5.41875 20.2313C7.38188 18.2677 6.00328 19.6468 9.22552 16.4245C9.3577 16.2924 9.53583 16.2183 9.72286 16.2183H17.672C18.8349 16.2183 19.7813 15.2724 19.7813 14.1089C19.7813 7.54356 19.7813 9.44012 19.7813 2.85883C19.7814 1.69586 18.835 0.749451 17.672 0.749451ZM3.51567 4.9682H13.4533C13.8419 4.9682 14.1564 5.28273 14.1564 5.67133C14.1564 6.05992 13.8419 6.37445 13.4533 6.37445H3.51567C3.12708 6.37445 2.81255 6.05992 2.81255 5.67133C2.81255 5.28273 3.12708 4.9682 3.51567 4.9682ZM10.6407 11.9995H3.51567C3.12708 11.9995 2.81255 11.685 2.81255 11.2964C2.81255 10.9078 3.12708 10.5933 3.51567 10.5933H10.6407C11.0293 10.5933 11.3438 10.9078 11.3438 11.2964C11.3438 11.685 11.0293 11.9995 10.6407 11.9995ZM16.2658 9.187H3.51567C3.12708 9.187 2.81255 8.87247 2.81255 8.48387C2.81255 8.09528 3.12708 7.78075 3.51567 7.78075H16.2658C16.6544 7.78075 16.9689 8.09528 16.9689 8.48387C16.9689 8.87247 16.6544 9.187 16.2658 9.187Z" fill="#878787"/>
                            <path d="M21.8903 3.56201H21.1966V14.109C21.1966 16.0474 19.61 17.6247 17.6715 17.6247H10.1074L8.60742 19.0215H14.5679L18.5807 23.0437C19.0215 23.4845 19.7809 23.1751 19.7809 22.5466V19.0215H21.8903C23.0535 19.0215 23.9997 18.0847 23.9997 16.9215V5.67143C23.9997 4.50823 23.0535 3.56201 21.8903 3.56201Z" fill="#878787"/>
                            </g>
                            <defs>
                            <clipPath id="clip0_151_17">
                            <rect width="24" height="24" fill="white"/>
                            </clipPath>
                            </defs>
                        </svg>