<svg width="40" height="32" viewBox="0 0 40 32" fill="none" xmlns="http://www.w3.org/2000/svg">
<path d="M34.7804 12.7722H30.6848C30.2148 12.7722 29.8338 13.1532 29.8338 13.6231C29.8338 14.4379 29.171 15.1006 28.3564 15.1006C27.5417 15.1006 26.8789 14.4378 26.8789 13.6231C26.8789 13.1532 26.4979 12.7722 26.0279 12.7722H21.9901C21.1353 12.7722 20.4399 13.4676 20.4399 14.3223V17.0845C20.4399 17.9392 21.1353 18.6347 21.9901 18.6347H22.601V24.3567C22.601 25.1901 23.279 25.8682 24.1124 25.8682H32.6002C33.4337 25.8682 34.1117 25.1902 34.1117 24.3567V18.6346H34.7804C35.6352 18.6346 36.3306 17.9392 36.3306 17.0844V14.3223C36.3306 13.4676 35.6352 12.7722 34.7804 12.7722ZM34.6289 16.9328H33.2608C32.7909 16.9328 32.4099 17.3138 32.4099 17.7837V24.1663H24.3029V17.7837C24.3029 17.3138 23.9219 16.9328 23.4519 16.9328H22.1417V14.474H25.2927C25.6656 15.8152 26.898 16.8024 28.3564 16.8024C29.8148 16.8024 31.0471 15.8153 31.42 14.474H34.6288V16.9328H34.6289Z" fill="black"/>
<path d="M5.19567 7.38333C6.46925 7.38333 7.50525 6.34725 7.50525 5.07375C7.50525 3.80024 6.46925 2.76416 5.19567 2.76416C3.92216 2.76416 2.88608 3.80024 2.88608 5.07375C2.88608 6.34725 3.92216 7.38333 5.19567 7.38333ZM5.19567 4.4659C5.5309 4.4659 5.80343 4.73851 5.80343 5.07367C5.80343 5.40882 5.53082 5.68144 5.19567 5.68144C4.86059 5.68144 4.5879 5.40882 4.5879 5.07367C4.58781 4.73859 4.86051 4.46598 5.19567 4.4659Z" fill="black"/>
<path d="M10.7466 7.38333C12.0201 7.38333 13.0562 6.34725 13.0562 5.07375C13.0562 3.80024 12.0201 2.76416 10.7466 2.76416C9.47309 2.76416 8.43701 3.80024 8.43701 5.07375C8.43701 6.34725 9.47309 7.38333 10.7466 7.38333ZM10.7466 4.4659C11.0818 4.4659 11.3544 4.73851 11.3544 5.07367C11.3544 5.40882 11.0817 5.68144 10.7466 5.68144C10.4114 5.68144 10.1388 5.40882 10.1388 5.07367C10.1388 4.73859 10.4114 4.4659 10.7466 4.4659Z" fill="black"/>
<path d="M37.5532 0.00939941H2.44683C1.09756 0.00939941 0 1.10696 0 2.45607V29.5439C0 30.893 1.09756 31.9907 2.44683 31.9907H37.5532C38.9024 31.9907 40 30.893 40 29.5439V2.45607C40 1.10696 38.9024 0.00939941 37.5532 0.00939941ZM2.44683 1.71122H37.5532C37.9639 1.71122 38.2982 2.04539 38.2982 2.45607V8.16644H1.70182V2.45607C1.70182 2.04539 2.03607 1.71122 2.44683 1.71122ZM37.5532 30.2889H2.44683C2.03607 30.2889 1.70182 29.9548 1.70182 29.544V9.86834H38.2982V29.544C38.2982 29.9548 37.9639 30.2889 37.5532 30.2889Z" fill="black"/>
<path d="M14.4579 14.9286H4.48918C4.01923 14.9286 3.63828 15.3095 3.63828 15.7795C3.63828 16.2494 4.01923 16.6304 4.48918 16.6304H14.4579C14.9278 16.6304 15.3088 16.2494 15.3088 15.7795C15.3088 15.3095 14.9278 14.9286 14.4579 14.9286Z" fill="black"/>
<path d="M14.4579 19.1835H4.48918C4.01923 19.1835 3.63828 19.5644 3.63828 20.0344C3.63828 20.5043 4.01923 20.8853 4.48918 20.8853L14.4579 20.8852C14.9278 20.8852 15.3088 20.5042 15.3088 20.0343C15.3088 19.5644 14.9278 19.1835 14.4579 19.1835Z" fill="black"/>
</svg>
