<svg width="32" height="40" viewBox="0 0 32 40" fill="none" xmlns="http://www.w3.org/2000/svg">
<path d="M7.89506 13.8005C8.88221 14.3871 9.99129 14.6802 11.0982 14.6802C12.2048 14.6802 13.3129 14.3869 14.3 13.8006C16.6482 12.4056 17.9223 9.64591 17.7945 6.22934C17.7246 4.35902 16.9895 2.92577 15.9175 1.90658C14.7896 0.821716 13.2309 0.15892 11.4723 0.0278716C11.3647 0.0198595 11.0307 -0.0140308 10.7589 0.00678226C7.74725 0.233608 4.55419 2.2324 4.4015 6.22474C4.40141 6.22704 4.39616 6.2275 4.39616 6.2298C4.39616 6.23063 4.39616 6.23146 4.39616 6.23229C4.30416 9.6473 5.54769 12.4059 7.89506 13.8005ZM11.1009 1.82866C12.0463 1.86707 13.1222 2.13819 14.0219 2.73634C14.4674 3.03426 14.8617 3.40705 15.1762 3.8572C12.5933 5.02007 9.38412 5.77367 6.27145 5.94708C6.5516 3.22581 8.85366 1.91919 11.1009 1.82866ZM15.8755 5.56185C15.918 5.79577 15.9449 6.04111 15.9545 6.29814C16.0563 9.01986 15.1108 11.1772 13.3604 12.2171C11.9665 13.0452 10.2348 13.0452 8.84086 12.2171C7.42437 11.3755 6.53503 9.80201 6.30129 7.78996C9.6312 7.61203 13.0804 6.80815 15.8755 5.56185ZM15.084 19.4943L13.3979 21.605C13.0805 22.0024 12.5009 22.0671 12.1035 21.7496C11.7062 21.4322 11.6413 20.8527 11.9589 20.4553L13.3361 18.7313C11.9547 18.3375 10.3887 18.3132 8.91085 18.7219L10.2958 20.4552C10.6133 20.8525 10.5486 21.432 10.1513 21.7496C9.75396 22.067 9.17442 22.0024 8.85688 21.605L7.15325 19.4729C5.86855 20.261 5.0223 21.4441 4.75661 22.8783L2.78784 33.5068L11.9706 33.5067C12.4791 33.5067 12.8915 33.919 12.8915 34.4276C12.8915 34.9362 12.4792 35.3485 11.9706 35.3485L1.6806 35.3487C1.40699 35.3487 1.14757 35.227 0.972588 35.0167C0.797611 34.8064 0.725225 34.5291 0.775048 34.2601L2.94532 22.5428C3.44668 19.8363 5.41333 17.8047 8.34107 16.9688C9.92424 16.5168 11.6909 16.4676 13.3154 16.8303C15.0597 17.2198 16.5456 18.0439 17.6122 19.2135C17.955 19.5893 17.9282 20.1717 17.5523 20.5145C17.1765 20.8573 16.5941 20.8305 16.2513 20.4546C15.9168 20.0878 15.5227 19.7665 15.084 19.4943ZM21.2514 37.6059C21.2514 38.1145 20.8391 38.5268 20.3305 38.5268H16.2709C15.7622 38.5268 15.3554 38.1008 15.3554 37.5922V24.1266C15.3554 23.6179 15.7622 23.2393 16.2709 23.2393H26.6473C27.1559 23.2393 27.6039 23.6179 27.6039 24.1266V25.2857C27.6039 25.7943 27.1916 26.2066 26.6829 26.2066C26.1743 26.2066 25.762 25.7943 25.762 25.2857V25.0812H17.1973V36.685H20.3305C20.8391 36.685 21.2514 37.0973 21.2514 37.6059ZM26.6473 33.1022C29.2658 33.1022 31.2403 31.9146 31.2403 30.3398C31.2403 28.7649 29.2658 27.5772 26.6473 27.5772C24.0291 27.5772 22.0546 28.7649 22.0546 30.3398C22.0546 31.9146 24.029 33.1022 26.6473 33.1022ZM24.4638 29.8608C25.0234 29.5801 25.8193 29.4191 26.6473 29.4191C27.4754 29.4191 28.2714 29.5801 28.831 29.8608C29.2998 30.0959 29.3985 30.3078 29.3985 30.3398C29.3985 30.3719 29.2998 30.5836 28.8311 30.8187C28.2714 31.0993 27.4754 31.2603 26.6473 31.2603C25.8193 31.2603 25.0234 31.0993 24.4638 30.8187C23.9952 30.5836 23.8966 30.3718 23.8966 30.3398C23.8966 30.3079 23.9951 30.0959 24.4638 29.8608ZM30.6747 34.573C30.8952 35.0314 30.7022 35.5817 30.2438 35.8021C29.2392 36.2851 27.9619 36.5512 26.6472 36.5512C25.3327 36.5512 24.0555 36.2851 23.051 35.8021C22.5925 35.5816 22.3997 35.0313 22.62 34.573C22.8404 34.1146 23.3908 33.9217 23.8491 34.1421C24.6097 34.5078 25.6034 34.7092 26.6472 34.7092C27.6912 34.7092 28.685 34.5078 29.4456 34.1421C29.904 33.9216 30.4544 34.1147 30.6747 34.573ZM30.6747 38.022C30.8952 38.4804 30.7022 39.0307 30.2438 39.2511C29.2393 39.7341 27.962 40.0001 26.6472 40.0001C25.3326 40.0001 24.0554 39.7341 23.051 39.2511C22.5925 39.0306 22.3997 38.4803 22.62 38.022C22.8404 37.5635 23.3908 37.3707 23.8491 37.5911C24.6095 37.9568 25.6032 38.1581 26.6472 38.1581C27.6913 38.1581 28.6851 37.9567 29.4456 37.5911C29.904 37.3707 30.4544 37.5635 30.6747 38.022Z" fill="black"/>
</svg>
