<svg width="40" height="26" viewBox="0 0 40 26" fill="none" xmlns="http://www.w3.org/2000/svg">
<path d="M10.7275 5.39954C7.49447 5.39954 4.86428 8.02972 4.86428 11.2627C4.86428 14.4957 7.49447 17.1259 10.7275 17.1259C13.9605 17.1259 16.5907 14.4957 16.5907 11.2627C16.5907 8.02972 13.9605 5.39954 10.7275 5.39954ZM10.7275 15.823C8.21299 15.823 6.16721 13.7773 6.16721 11.2627C6.16721 8.74816 8.21299 6.70247 10.7275 6.70247C13.242 6.70247 15.2877 8.74816 15.2877 11.2627C15.2877 13.7773 13.242 15.823 10.7275 15.823Z" fill="black"/>
<path d="M19.5414 16.6985L18.7983 15.9554C19.2223 15.2295 19.543 14.4579 19.7559 13.6515H20.8035C21.1633 13.6515 21.4549 13.3598 21.4549 13V9.52551C21.4549 9.16572 21.1633 8.87404 20.8035 8.87404H19.7559C19.543 8.06753 19.2222 7.29602 18.7983 6.57011L19.5414 5.82701C19.7958 5.57259 19.7958 5.16008 19.5414 4.90575L17.0846 2.44894C16.8301 2.19452 16.4176 2.19452 16.1632 2.44894L15.4202 3.19196C14.6944 2.76798 13.9228 2.44729 13.1163 2.2343V1.18674C13.1163 0.826961 12.8247 0.535278 12.4648 0.535278H8.99032C8.63045 0.535278 8.33885 0.826961 8.33885 1.18674V2.2343C7.53233 2.44729 6.76074 2.76798 6.03483 3.19196L5.29181 2.44894C5.1696 2.32672 5.00395 2.2581 4.8311 2.2581C4.65824 2.2581 4.49268 2.32672 4.37038 2.44894L1.91357 4.90566C1.65915 5.16008 1.65915 5.57259 1.91357 5.82692L2.65668 6.57002C2.23262 7.29584 1.91192 8.06744 1.69902 8.87395H0.651466C0.291596 8.87395 0 9.16564 0 9.52542V12.9999C0 13.3597 0.291596 13.6514 0.651466 13.6514H1.69902C1.91192 14.4579 2.2327 15.2295 2.65668 15.9553L1.91357 16.6984C1.65915 16.9528 1.65915 17.3653 1.91357 17.6197L4.37029 20.0765C4.49251 20.1987 4.65815 20.2673 4.83101 20.2673C5.00387 20.2673 5.16943 20.1987 5.29173 20.0765L6.03474 19.3335C6.76065 19.7574 7.53225 20.0781 8.33876 20.2911V21.3387C8.33876 21.6984 8.63036 21.9901 8.99023 21.9901H12.4647C12.8246 21.9901 13.1162 21.6984 13.1162 21.3387V20.2911C13.9227 20.0781 14.6943 19.7574 15.4201 19.3335L16.1631 20.0765C16.4176 20.3309 16.8301 20.3309 17.0845 20.0765L19.5413 17.6197C19.7957 17.3654 19.7957 16.9529 19.5414 16.6985ZM18.6007 12.8704C18.3967 13.8756 18.0024 14.8245 17.4289 15.6907C17.2578 15.949 17.2923 16.2921 17.5113 16.511L18.1594 17.159L16.6238 18.6946L15.9759 18.0466C15.7566 17.8275 15.4137 17.7931 15.1555 17.9641C14.2893 18.5376 13.3405 18.932 12.3351 19.136C12.0314 19.1977 11.8132 19.4646 11.8132 19.7745V20.6872H9.64169V19.7745C9.64169 19.4646 9.42341 19.1976 9.11983 19.136C8.11448 18.9319 7.16552 18.5376 6.29933 17.9641C6.04109 17.7931 5.69807 17.8275 5.479 18.0466L4.83101 18.6946L3.29555 17.1591L3.94363 16.5111C4.16261 16.2922 4.19718 15.949 4.02606 15.6908C3.45251 14.8247 3.05815 13.8757 2.85403 12.8704C2.79244 12.5668 2.52543 12.3486 2.21559 12.3486H1.30293V10.1771H2.21568C2.52543 10.1771 2.79253 9.95886 2.85412 9.65528C3.05833 8.64994 3.45268 7.70097 4.02615 6.83487C4.19726 6.57654 4.16269 6.23352 3.94371 6.01454L3.29564 5.36655L4.8311 3.83109L5.47909 4.47908C5.69815 4.69814 6.04126 4.73254 6.29941 4.5616C7.1656 3.98805 8.11448 3.59369 9.11991 3.38965C9.4235 3.32807 9.64178 3.06105 9.64178 2.75122V1.83821H11.8133V2.75096C11.8133 3.06079 12.0315 3.32772 12.3352 3.38939C13.3405 3.59352 14.2894 3.98779 15.1556 4.56134C15.4139 4.73228 15.7569 4.69788 15.9759 4.47882L16.6239 3.83083L18.1595 5.36637L17.5114 6.01437C17.2924 6.23335 17.2579 6.57645 17.429 6.83469C18.0026 7.70088 18.3969 8.64976 18.6008 9.65502C18.6625 9.95869 18.9294 10.1769 19.2393 10.1769H20.152V12.3484H19.2392C18.9293 12.3485 18.6624 12.5667 18.6007 12.8704Z" fill="black"/>
<path d="M30.532 18.6026H29.7484C29.634 17.7598 29.3017 16.9857 28.8092 16.3391L29.3644 15.7838C29.6188 15.5294 29.6188 15.1169 29.3643 14.8625C29.11 14.608 28.6975 14.6081 28.4431 14.8625L27.8879 15.4177C27.2413 14.9252 26.4671 14.5929 25.6243 14.4785V13.6949C25.6243 13.3351 25.3327 13.0435 24.9728 13.0435C24.613 13.0435 24.3214 13.3351 24.3214 13.6949V14.4785C23.4786 14.5929 22.7044 14.9252 22.0578 15.4177L21.5026 14.8625C21.2482 14.6081 20.8357 14.608 20.5814 14.8625C20.3269 15.1169 20.3269 15.5294 20.5813 15.7838L21.1365 16.3391C20.644 16.9857 20.3117 17.7598 20.1973 18.6026H19.4137C19.0538 18.6026 18.7622 18.8943 18.7622 19.2541C18.7622 19.6139 19.0538 19.9056 19.4137 19.9056H20.1973C20.3117 20.7484 20.644 21.5225 21.1365 22.1691L20.5813 22.7244C20.3269 22.9788 20.3269 23.3913 20.5814 23.6457C20.7085 23.7729 20.8753 23.8365 21.042 23.8365C21.2087 23.8365 21.3755 23.7729 21.5027 23.6457L22.0579 23.0904C22.7045 23.583 23.4787 23.9153 24.3215 24.0297V24.8133C24.3215 25.1731 24.6131 25.4647 24.9729 25.4647C25.3328 25.4647 25.6244 25.1731 25.6244 24.8133V24.0297C26.4672 23.9153 27.2413 23.583 27.8879 23.0904L28.4432 23.6457C28.5704 23.7729 28.7371 23.8365 28.9039 23.8365C29.0706 23.8365 29.2373 23.7729 29.3645 23.6457C29.619 23.3913 29.619 22.9788 29.3646 22.7244L28.8094 22.1691C29.3019 21.5225 29.6342 20.7484 29.7486 19.9056H30.5322C30.8921 19.9056 31.1837 19.6139 31.1837 19.2541C31.1837 18.8943 30.8919 18.6026 30.532 18.6026ZM24.9728 22.772C23.033 22.772 21.4549 21.1939 21.4549 19.2541C21.4549 17.3143 23.033 15.7362 24.9728 15.7362C26.9127 15.7362 28.4908 17.3143 28.4908 19.2541C28.4908 21.1939 26.9127 22.772 24.9728 22.772Z" fill="black"/>
<path d="M10.7275 8.1792C9.02715 8.1792 7.64387 9.56248 7.64387 11.2628C7.64387 12.9631 9.02715 14.3464 10.7275 14.3464C12.4278 14.3464 13.8111 12.9631 13.8111 11.2628C13.8111 9.56248 12.4278 8.1792 10.7275 8.1792ZM10.7275 13.0435C9.74558 13.0435 8.9468 12.2447 8.9468 11.2628C8.9468 10.2809 9.74558 9.48213 10.7275 9.48213C11.7094 9.48213 12.5081 10.2809 12.5081 11.2628C12.5081 12.2447 11.7094 13.0435 10.7275 13.0435Z" fill="black"/>
<path d="M24.9729 17.2128C23.8473 17.2128 22.9316 18.1285 22.9316 19.254C22.9316 20.3796 23.8473 21.2953 24.9729 21.2953C26.0984 21.2953 27.0141 20.3796 27.0141 19.254C27.0141 18.1285 26.0984 17.2128 24.9729 17.2128ZM24.9729 19.9924C24.5657 19.9924 24.2345 19.6612 24.2345 19.254C24.2345 18.8469 24.5657 18.5157 24.9729 18.5157C25.38 18.5157 25.7112 18.8469 25.7112 19.254C25.7112 19.6612 25.38 19.9924 24.9729 19.9924Z" fill="black"/>
<path d="M32.6167 4.70471C30.7249 4.70471 29.1857 6.24391 29.1857 8.13576C29.1857 10.0276 30.7249 11.5668 32.6167 11.5668C34.5086 11.5668 36.0478 10.0276 36.0478 8.13576C36.0478 6.24391 34.5086 4.70471 32.6167 4.70471ZM32.6167 10.2639C31.4432 10.2639 30.4886 9.30919 30.4886 8.13576C30.4886 6.96234 31.4432 6.00764 32.6167 6.00764C33.7902 6.00764 34.7448 6.96234 34.7448 8.13576C34.7448 9.30919 33.7902 10.2639 32.6167 10.2639Z" fill="black"/>
<path d="M38.6905 6.81113L38.6837 6.81086C38.524 6.07905 38.2348 5.39553 37.8416 4.78454L37.8481 4.77751C38.354 4.26025 38.3504 3.42785 37.8376 2.91493C37.5873 2.66476 37.2547 2.52691 36.9009 2.52691C36.9008 2.52691 36.9009 2.52691 36.9008 2.52691C36.552 2.52691 36.2238 2.66085 35.9749 2.90442L35.9679 2.91084C35.3569 2.51762 34.6734 2.22837 33.9416 2.06871L33.9414 2.06194C33.9332 1.33855 33.3423 0.752406 32.6168 0.752319C31.8914 0.752319 31.3004 1.33846 31.2922 2.06194L31.292 2.06871C30.5602 2.22845 29.8767 2.51762 29.2657 2.91084L29.2587 2.90433C28.7413 2.39844 27.9091 2.402 27.396 2.91493C26.8832 3.42785 26.8797 4.26016 27.3854 4.77751L27.392 4.78463C26.9988 5.39562 26.7097 6.07914 26.5499 6.81095L26.5431 6.81121C25.8197 6.81929 25.2336 7.41039 25.2336 8.13577C25.2336 8.86125 25.8198 9.45225 26.5433 9.46033L26.5499 9.46059C26.7096 10.1924 26.9988 10.8758 27.392 11.4868L27.3854 11.4939C26.8796 12.0113 26.8832 12.8436 27.396 13.3564C27.6462 13.6067 27.9789 13.7445 28.3327 13.7445C28.3328 13.7445 28.3327 13.7445 28.3328 13.7445C28.6816 13.7445 29.0098 13.6105 29.2587 13.367L29.2657 13.3605C29.8767 13.7538 30.5602 14.0429 31.292 14.2027L31.2922 14.2094C31.3004 14.9329 31.8914 15.5191 32.6167 15.5191C32.6168 15.5191 32.6168 15.5191 32.6169 15.5191C32.9707 15.5191 33.3033 15.3813 33.5534 15.1311C33.8001 14.8844 33.9375 14.5577 33.9414 14.2095L33.9416 14.2027C34.6734 14.0431 35.3569 13.7538 35.9679 13.3606L35.975 13.3671C36.4923 13.873 37.3246 13.8694 37.8376 13.3565C38.3505 12.8436 38.354 12.0112 37.8481 11.4939L37.8416 11.4869C38.2348 10.8759 38.5239 10.1925 38.6837 9.46068L38.6903 9.46042C39.4138 9.45234 40 8.86133 40 8.13586C40 7.4103 39.4139 6.81929 38.6905 6.81113ZM32.6167 13.0434C29.9063 13.0434 27.709 10.8461 27.709 8.13569C27.709 5.42524 29.9063 3.22798 32.6167 3.22798C35.3272 3.22798 37.5244 5.42524 37.5244 8.13569C37.5244 10.8461 35.3272 13.0434 32.6167 13.0434Z" fill="black"/>
</svg>
