<svg width="35" height="29" viewBox="0 0 35 29" fill="none" xmlns="http://www.w3.org/2000/svg">
<path d="M29.6429 28.5714H4.64286C2.1671 28.5714 0.143934 26.6336 0.00734976 24.192L0 23.9286V3.21429C0 1.51305 1.32166 0.120507 2.99422 0.0074155L3.21429 0H25.3571C27.0584 0 28.4509 1.32166 28.564 2.99422L28.5714 3.21429V4.28571H31.0714C32.7727 4.28571 34.1652 5.60737 34.2783 7.27993L34.2857 7.5V23.9286C34.2857 26.4043 32.3479 28.4275 29.9063 28.5641L29.6429 28.5714H4.64286H29.6429ZM4.64286 26.4286H29.6429C30.9545 26.4286 32.0303 25.4184 32.1346 24.1336L32.1429 23.9286V7.5C32.1429 6.95758 31.7398 6.5093 31.2168 6.43835L31.0714 6.42857H28.5714V21.7857C28.5714 22.3281 28.1684 22.7764 27.6454 22.8474L27.5 22.8571C26.9576 22.8571 26.5093 22.4541 26.4384 21.9311L26.4286 21.7857V3.21429C26.4286 2.67186 26.0255 2.22358 25.5025 2.15264L25.3571 2.14286H3.21429C2.67186 2.14286 2.22358 2.54593 2.15264 3.0689L2.14286 3.21429V23.9286C2.14286 25.2402 3.15301 26.316 4.43782 26.4203L4.64286 26.4286H29.6429H4.64286ZM11.7808 12.8621C12.767 12.8621 13.5665 13.6616 13.5665 14.6478V19.6429C13.5665 20.6291 12.767 21.4286 11.7808 21.4286H6.78571C5.79949 21.4286 5 20.6291 5 19.6429V14.6478C5 13.6616 5.79949 12.8621 6.78571 12.8621H11.7808ZM17.5 19.2857H22.4945C23.0863 19.2857 23.566 19.7654 23.566 20.3571C23.566 20.8996 23.1629 21.3478 22.6399 21.4188L22.4945 21.4286H17.5C16.9083 21.4286 16.4286 20.9489 16.4286 20.3571C16.4286 19.8147 16.8316 19.3664 17.3546 19.2955L17.5 19.2857H22.4945H17.5ZM11.4236 15.005H7.14286V19.2857H11.4236V15.005ZM17.5 12.8621H22.4945C23.0863 12.8621 23.566 13.3418 23.566 13.9335C23.566 14.476 23.1629 14.9242 22.6399 14.9952L22.4945 15.005H17.5C16.9083 15.005 16.4286 14.5253 16.4286 13.9335C16.4286 13.3911 16.8316 12.9428 17.3546 12.8719L17.5 12.8621H22.4945H17.5ZM6.06628 6.4238H22.4945C23.0863 6.4238 23.566 6.90349 23.566 7.49523C23.566 8.03765 23.1629 8.48593 22.6399 8.55687L22.4945 8.56666H6.06628C5.47455 8.56666 4.99485 8.08696 4.99485 7.49523C4.99485 6.9528 5.39793 6.50452 5.92089 6.43358L6.06628 6.4238H22.4945H6.06628Z" fill="#212121"/>
</svg>
