<svg width="40" height="40" viewBox="0 0 40 40" fill="none" xmlns="http://www.w3.org/2000/svg">
<g clip-path="url(#clip0_15_352)">
<path d="M39.4951 12.5525L20.6063 0.183062C20.2362 -0.0610206 19.756 -0.0610206 19.3859 0.183062L0.504929 12.5525C0.0955 12.8202 -0.0934671 13.332 0.0482582 13.7966C0.189984 14.269 0.623033 14.5918 1.1112 14.5918H4.95353V17.6783C4.95353 18.2924 5.44957 18.7884 6.06371 18.7884H6.50463V29.1344H6.06371C5.44957 29.1344 4.95353 29.6304 4.95353 30.2446V33.331H3.98507C3.37093 33.331 2.87489 33.8271 2.87489 34.4412C2.87489 35.0554 3.37093 35.5514 3.98507 35.5514H36.015C36.6291 35.5514 37.1252 35.0554 37.1252 34.4412C37.1252 33.8271 36.6291 33.331 36.015 33.331H35.0465V30.2446C35.0465 29.6304 34.5505 29.1344 33.9364 29.1344H33.4954V18.7884H33.9364C34.5505 18.7884 35.0465 18.2924 35.0465 17.6783V14.5918H38.8889C39.377 14.5918 39.8101 14.269 39.9518 13.7966C40.0935 13.3241 39.9046 12.8202 39.4951 12.5525ZM12.2524 33.331H7.17389V31.3548H12.2524V33.331ZM8.73287 29.1344V18.7884H10.7092V29.1344H8.73287ZM7.17381 16.5681V14.5918H12.2523V16.5681H7.17381ZM27.0705 29.1344H26.6296C26.0155 29.1344 25.5194 29.6304 25.5194 30.2446V33.331H14.4806V30.2446C14.4806 29.6304 13.9846 29.1344 13.3704 29.1344H12.9295V18.7884H13.3704C13.9846 18.7884 14.4806 18.2924 14.4806 17.6783V14.5918H25.5194V17.6783C25.5194 18.2924 26.0155 18.7884 26.6296 18.7884H27.0705V29.1344ZM32.8183 33.331H27.7398V31.3548H32.8183V33.331ZM29.2909 29.1344V18.7884H31.2672V29.1344H29.2909ZM32.8262 16.5681H27.7477V14.5918H32.8262V16.5681ZM4.83542 12.3714L11.8351 7.78111L13.1579 9.51331C13.5988 9.95423 14.2287 10.0566 14.7168 9.71803C15.2207 9.36371 15.2995 8.64721 14.9215 8.15905L13.7011 6.5607L15.5672 5.34029L17.882 8.37164C18.3544 8.84405 19.0158 8.8913 19.441 8.57635C19.937 8.21416 20.0237 7.50554 19.6457 7.01737L17.4332 4.112L20 2.44279L35.1646 12.3714H4.83542Z" fill="black"/>
<path d="M38.8889 37.7797H1.11122C0.497076 37.7797 0.0010376 38.2757 0.0010376 38.8898C0.0010376 39.504 0.497076 40 1.11122 40H38.8889C39.503 40 39.9991 39.504 39.9991 38.8898C39.9991 38.2757 39.503 37.7797 38.8889 37.7797Z" fill="black"/>
</g>
<defs>
<clipPath id="clip0_15_352">
<rect width="40" height="40" fill="white"/>
</clipPath>
</defs>
</svg>
