<svg width="40" height="36" viewBox="0 0 40 36" fill="none" xmlns="http://www.w3.org/2000/svg">
<path d="M29.44 0.780273C25.3893 0.780273 21.7621 3.09087 20 6.60211C18.238 3.09087 14.6107 0.780273 10.56 0.780273C4.73721 0.780273 0 5.51749 0 11.3404C0 16.3053 4.58853 20.7156 8.27546 24.2593L19.4614 35.0102C19.6137 35.15 19.8069 35.2198 20 35.2198C20.1938 35.2198 20.3874 35.1495 20.5399 35.009L31.7245 24.2593C35.4115 20.7156 40 16.3052 40 11.3404C40 5.51749 35.2628 0.780273 29.44 0.780273ZM3.36829 6.21294L5.20024 4.38099C5.79068 3.79047 6.63347 3.528 7.45498 3.67972L7.96056 3.77286L12.979 5.35956C12.9951 5.36466 13.0113 5.36928 13.0277 5.37326C13.5804 5.51007 13.5804 5.68721 13.5804 5.85852C13.5804 5.89996 13.5731 5.97565 13.5241 6.01772C13.4644 6.06904 13.3082 6.1096 13.0488 6.07079L11.1386 5.75629C10.8655 5.71135 10.5883 5.81143 10.4069 6.02083C10.2254 6.23023 10.1658 6.51868 10.2494 6.78282L10.2544 6.79884C10.2929 6.92075 10.3602 7.03159 10.4507 7.12203L15.0547 11.7261C15.1674 11.8388 15.1674 12.0222 15.0548 12.1348C14.9419 12.2476 14.7586 12.2474 14.6459 12.1348C14.6456 12.1345 14.6453 12.1342 14.6449 12.1339C14.6446 12.1336 14.6444 12.1332 14.6441 12.1329L11.3982 8.9088C11.086 8.59868 10.5814 8.60035 10.2713 8.91254C9.96112 9.22474 9.96287 9.72928 10.2751 10.0394L13.5186 13.261C13.5188 13.2612 13.519 13.2614 13.5191 13.2616L14.7653 14.5078C14.839 14.5814 14.85 14.6674 14.85 14.7121C14.85 14.7568 14.839 14.8428 14.7653 14.9164C14.6917 14.9901 14.6057 15.0011 14.561 15.0011C14.5163 15.0011 14.4303 14.9901 14.3567 14.9164L13.5889 14.1486L9.63657 10.1962C9.32534 9.88505 8.82096 9.88505 8.50964 10.1962C8.19849 10.5074 8.19849 11.0119 8.50964 11.3231L12.462 15.2755L12.4629 15.2763C12.5747 15.389 12.5744 15.5717 12.4621 15.6842C12.3493 15.7968 12.166 15.7969 12.0532 15.6842L9.51068 13.1416L7.69801 11.3292C7.38685 11.018 6.88247 11.018 6.57108 11.3292C6.25992 11.6404 6.25992 12.1449 6.57108 12.4561L8.38319 14.2682C8.38335 14.2684 8.38343 14.2685 8.38359 14.2686L8.38454 14.2696C8.45737 14.3431 8.46837 14.4285 8.46837 14.473C8.46837 14.5177 8.45729 14.6037 8.38367 14.6774C8.30996 14.751 8.22398 14.762 8.17936 14.762C8.13474 14.762 8.04869 14.751 7.97506 14.6773L3.74582 10.4481C3.731 10.4333 3.71562 10.4191 3.69968 10.4055C3.68805 10.3956 2.5349 9.37733 2.48558 8.12625C2.45928 7.459 2.74805 6.83318 3.36829 6.21294ZM30.83 22.8396L28.9979 24.6717C28.4035 25.2661 27.8041 25.556 27.1678 25.556C27.1429 25.556 27.1178 25.5555 27.0928 25.5546C25.8338 25.5098 24.8136 24.3496 24.8053 24.3401C24.7918 24.3242 24.7775 24.3088 24.7628 24.2941L20.5335 20.0648C20.4599 19.9912 20.4489 19.9051 20.4489 19.8604C20.4489 19.8157 20.4599 19.7298 20.5336 19.656C20.6075 19.5825 20.6935 19.5715 20.7382 19.5715C20.783 19.5715 20.869 19.5825 20.9426 19.6561C20.9427 19.6563 20.9428 19.6564 20.9429 19.6565L22.7551 21.4686C22.9107 21.6243 23.1146 21.702 23.3185 21.702C23.5224 21.702 23.7263 21.6242 23.8819 21.4686C24.1931 21.1575 24.1931 20.6529 23.8819 20.3418L22.0694 18.5292L19.5269 15.9866C19.4142 15.8739 19.4142 15.6906 19.5268 15.5779C19.6394 15.4654 19.8226 15.4651 19.9355 15.5777L19.9356 15.5778L23.8879 19.5302C24.0435 19.6858 24.2474 19.7635 24.4513 19.7635C24.6552 19.7635 24.8591 19.6857 25.0147 19.5302C25.3259 19.219 25.3259 18.7145 25.0147 18.4033L21.0625 14.451C21.0623 14.4508 21.0622 14.4507 21.0621 14.4506L20.2946 13.6831C20.1819 13.5704 20.1819 13.387 20.2945 13.2744C20.4073 13.1618 20.5906 13.1616 20.7033 13.2744L21.9471 14.5181C21.9474 14.5184 21.9478 14.5188 21.9481 14.5192L25.0919 17.6847C25.2477 17.8416 25.4524 17.9201 25.6573 17.9201C25.8603 17.9201 26.0633 17.843 26.2188 17.6887C26.531 17.3786 26.5327 16.8741 26.2227 16.5619L23.0783 13.3956C23.0781 13.3953 23.0778 13.3951 23.0775 13.3948C23.0771 13.3944 23.0767 13.394 23.0763 13.3936L23.0754 13.3926C23.0026 13.3192 22.9916 13.2337 22.9916 13.1892C22.9916 13.1444 23.0026 13.0584 23.0763 12.9848C23.1499 12.9112 23.2359 12.9002 23.2806 12.9002C23.3253 12.9002 23.4113 12.9112 23.4849 12.9849L28.089 17.589C28.1798 17.6797 28.2909 17.7471 28.4133 17.7857L28.4292 17.7907C28.6932 17.8737 28.9815 17.8139 29.1905 17.6325C29.3996 17.4512 29.4996 17.1743 29.4546 16.9012L29.1401 14.9908C29.1012 14.7315 29.1418 14.5754 29.1931 14.5157C29.2351 14.4668 29.311 14.4595 29.3524 14.4595C29.5236 14.4595 29.7008 14.4595 29.8376 15.0121C29.8417 15.0286 29.8462 15.0448 29.8513 15.0609L31.438 20.0791L31.5313 20.5849C31.6826 21.4062 31.4205 22.2491 30.83 22.8396ZM33.1445 20.6281C33.1332 20.5173 33.1191 20.4066 33.0987 20.2961L33.0067 19.7968C33.0008 19.7495 32.9905 19.7022 32.9756 19.6553L31.3782 14.6035C30.9931 13.0925 29.9452 12.866 29.3526 12.866C28.817 12.866 28.3184 13.0889 27.9845 13.4775C27.7673 13.7304 27.5349 14.1476 27.5308 14.7772L24.612 11.8584C24.2564 11.5027 23.7836 11.307 23.2807 11.307C22.7778 11.307 22.305 11.5028 21.9496 11.8584C21.8798 11.9281 21.8163 12.0023 21.759 12.0803C21.0208 11.4145 19.8784 11.4372 19.1677 12.1479C18.6206 12.6952 18.4813 13.4981 18.75 14.1756C18.6253 14.2517 18.5077 14.3436 18.3999 14.4513C17.666 15.1853 17.666 16.3796 18.3999 17.1137L19.6267 18.3405C19.5494 18.3972 19.4759 18.4603 19.4069 18.5294C19.0512 18.8849 18.8555 19.3577 18.8555 19.8606C18.8555 20.3635 19.0512 20.8363 19.4069 21.1919L23.6181 25.4031C23.8041 25.6119 24.9524 26.8331 26.5551 27.0984C23.7419 29.8419 21.1002 32.3135 19.999 33.3375C18.6325 32.0707 14.8783 28.5626 11.1233 24.8076C10.5758 24.26 9.99474 23.7016 9.37968 23.1105C5.91092 19.7761 1.59363 15.6266 1.59363 11.3404C1.59363 11.0253 1.6102 10.7141 1.64199 10.4073C2.05865 11.0577 2.51626 11.4856 2.63673 11.5929L6.84805 15.8042C7.20359 16.1598 7.67641 16.3557 8.17928 16.3557C8.68215 16.3557 9.15498 16.1598 9.51044 15.8043C9.57952 15.7352 9.64263 15.6617 9.69936 15.5844L10.9262 16.8113C11.2931 17.1783 11.7753 17.3618 12.2574 17.3618C12.7395 17.3618 13.2217 17.1783 13.5887 16.8113C13.6962 16.7039 13.7879 16.5865 13.8638 16.4622C14.0826 16.5493 14.3182 16.5949 14.5608 16.5949C15.0637 16.5949 15.5365 16.399 15.892 16.0435C16.2477 15.6879 16.4435 15.2151 16.4435 14.7121C16.4435 14.242 16.2724 13.7982 15.9595 13.4519C16.0372 13.3952 16.1115 13.3318 16.1816 13.2617C16.9155 12.5277 16.9155 11.3333 16.1816 10.5993L13.2626 7.68035C13.8921 7.67621 14.3095 7.44386 14.5624 7.22665C14.951 6.89286 15.1739 6.39422 15.1739 5.8586C15.1739 5.26601 14.9473 4.2182 13.4365 3.83294L9.16558 2.48258C9.62008 2.41127 10.0857 2.37398 10.56 2.37398C14.6282 2.37398 18.1932 5.11828 19.2296 9.0476C19.3218 9.39748 19.6382 9.64123 20 9.64123C20.3618 9.64123 20.6782 9.39748 20.7704 9.0476C21.8068 5.11828 25.3718 2.37398 29.44 2.37398C34.3841 2.3739 38.4064 6.39629 38.4064 11.3404C38.4064 14.6172 35.883 17.8142 33.1445 20.6281Z" fill="black"/>
<path d="M36.5737 10.4303C36.1337 10.4303 35.7769 10.787 35.7769 11.2271C35.7769 11.9565 35.655 12.6715 35.4143 13.3521C35.2677 13.767 35.4853 14.2222 35.9002 14.3689C35.988 14.3999 36.0775 14.4147 36.1657 14.4147C36.4939 14.4147 36.8014 14.2103 36.917 13.8832C37.2179 13.0316 37.3705 12.1379 37.3705 11.2271C37.3705 10.787 37.0137 10.4303 36.5737 10.4303Z" fill="black"/>
<path d="M36.1657 9.63377C36.2537 9.63377 36.3433 9.61903 36.4312 9.58804C36.8461 9.44134 37.0636 8.98612 36.917 8.57122C35.7939 5.39385 32.774 3.25903 29.4024 3.25903C27.6092 3.25903 25.9155 3.84079 24.5047 4.9415C24.1578 5.21218 24.0959 5.7129 24.3666 6.05983C24.6374 6.40684 25.1381 6.4686 25.485 6.19792C26.6131 5.31784 27.9677 4.85266 29.4024 4.85266C32.0999 4.85266 34.516 6.56047 35.4143 9.1023C35.53 9.42939 35.8374 9.63377 36.1657 9.63377Z" fill="black"/>
<path d="M12.0309 21.3744C11.7161 21.0667 11.2116 21.0727 10.9041 21.3874C10.5966 21.7022 10.6025 22.2067 10.9172 22.5142L12.192 23.7598C12.347 23.9113 12.548 23.9867 12.7488 23.9867C12.9559 23.9867 13.1626 23.9066 13.3187 23.7468C13.6263 23.4321 13.6204 22.9275 13.3057 22.62L12.0309 21.3744Z" fill="black"/>
<path d="M14.1712 24.5794C13.8636 24.8943 13.8695 25.3987 14.1842 25.7063L19.6025 31.0003C19.7575 31.1517 19.9585 31.2272 20.1593 31.2272C20.3664 31.2272 20.5731 31.147 20.7292 30.9872C21.0368 30.6724 21.0309 30.168 20.7162 29.8604L15.2978 24.5664C14.983 24.2588 14.4786 24.2647 14.1712 24.5794Z" fill="black"/>
</svg>
