<svg width="40" height="40" viewBox="0 0 40 40" fill="none" xmlns="http://www.w3.org/2000/svg">
<g clip-path="url(#clip0_261_9)">
<path d="M39.7836 13.1318L36.6741 10.0223C36.5356 9.88369 36.3478 9.80591 36.152 9.80591C35.9561 9.80591 35.7684 9.88369 35.6298 10.0223L34.4139 11.2382C29.8679 8.06855 24.0724 7.43138 19.0245 9.32788L23.807 4.54535C24.1423 4.71729 24.5152 4.80997 24.9028 4.80997C25.5452 4.80997 26.1493 4.55975 26.6036 4.10535C27.541 3.16775 27.541 1.64197 26.6034 0.704369C26.1494 0.250092 25.5455 0 24.9031 0C24.2607 0 23.6567 0.250092 23.2026 0.704492C22.447 1.45994 22.3013 2.5968 22.7632 3.50068L15.2087 11.055L14.1761 10.0224C13.8879 9.73391 13.4201 9.73391 13.1319 10.0224L10.0224 13.1319C9.88382 13.2704 9.80603 13.4582 9.80603 13.654C9.80603 13.85 9.88382 14.0377 10.0224 14.1762L11.055 15.2087L3.5008 22.7628C3.16554 22.5908 2.79262 22.4982 2.40505 22.4982C1.76271 22.4982 1.15877 22.7483 0.704492 23.2026C0.250092 23.6567 0 24.2607 0 24.9031C0 25.5456 0.250092 26.1495 0.704492 26.6036C1.15865 27.0578 1.76258 27.3081 2.4048 27.3081C3.04726 27.3081 3.65108 27.058 4.10535 26.6036C4.86105 25.848 5.00665 24.7113 4.54474 23.8073L9.32763 19.0245C7.43126 24.0726 8.06855 29.8681 11.2384 34.4138L10.0223 35.6299C9.73378 35.9183 9.73378 36.3858 10.0223 36.6741L13.1318 39.7836C13.2759 39.9279 13.465 40 13.6539 40C13.8428 40 14.0319 39.9279 14.176 39.7836L17.2855 36.6741C17.574 36.3857 17.574 35.9182 17.2855 35.6299L14.176 32.5204C13.8878 32.2319 13.4199 32.2319 13.1318 32.5204L12.3024 33.3498C8.88702 28.2641 8.88702 21.5419 12.3023 16.4561L13.1318 17.2855C13.2759 17.4297 13.465 17.5018 13.6539 17.5018C13.8428 17.5018 14.0319 17.4297 14.176 17.2855L17.2855 14.1761C17.4241 14.0375 17.5019 13.8498 17.5019 13.6539C17.5019 13.4581 17.4241 13.2703 17.2855 13.1318L16.456 12.3023C21.5415 8.88726 28.2635 8.88714 33.3498 12.3023L32.5204 13.1317C32.232 13.4201 32.232 13.8876 32.5204 14.1759L35.6298 17.2854C35.7684 17.424 35.9561 17.5018 36.152 17.5018C36.3478 17.5018 36.5356 17.424 36.6741 17.2854L39.7836 14.1759C40.0721 13.8878 40.0721 13.4202 39.7836 13.1318ZM13.6542 34.0869L15.7193 36.152L13.6542 38.2171L11.5889 36.152L13.6542 34.0869ZM24.2468 1.74868C24.4222 1.57342 24.6551 1.47692 24.9031 1.47692C25.151 1.47692 25.384 1.57342 25.5593 1.74868C25.9211 2.11052 25.9211 2.69932 25.5594 3.06117C25.384 3.23643 25.1509 3.33305 24.9029 3.33305C24.6553 3.33305 24.4225 3.23668 24.2473 3.06178L24.2469 3.06129C24.2468 3.06117 24.2465 3.06105 24.2465 3.06105C23.8849 2.69908 23.885 2.1104 24.2468 1.74868ZM3.06117 25.5593C2.88578 25.7346 2.6528 25.8311 2.4048 25.8311C2.15692 25.8311 1.92406 25.7346 1.74868 25.5593C1.57342 25.384 1.47692 25.151 1.47692 24.9031C1.47692 24.6551 1.57342 24.422 1.74868 24.2468C1.92406 24.0715 2.15705 23.975 2.40492 23.975C2.65255 23.975 2.88542 24.0714 3.06068 24.2462L3.06105 24.2466C3.06117 24.2468 3.06142 24.2469 3.06142 24.2469C3.42302 24.6089 3.42289 25.1975 3.06117 25.5593ZM13.6542 15.7191L12.6218 14.6869C12.6217 14.6868 12.6217 14.6866 12.6217 14.6866C12.6214 14.6864 12.6213 14.6863 12.6212 14.6863L11.5888 13.6539L13.6539 11.5888L14.6847 12.6194C14.6853 12.6202 14.6857 12.6209 14.6863 12.6215C14.6869 12.6222 14.6876 12.6225 14.6882 12.6231L14.7825 12.7174C14.7845 12.7194 14.7863 12.7212 14.7883 12.7232L15.7193 13.6542L13.6542 15.7191ZM36.152 15.7191L34.087 13.654L36.152 11.5889L38.2171 13.654L36.152 15.7191Z" fill="black"/>
</g>
<defs>
<clipPath id="clip0_261_9">
<rect width="40" height="40" fill="white"/>
</clipPath>
</defs>
</svg>
