<svg width="38" height="40" viewBox="0 0 38 40" fill="none" xmlns="http://www.w3.org/2000/svg">
<path d="M37.6053 25.0265C37.6053 23.8413 36.641 22.877 35.4558 22.877H31.8846V16.8023C31.8846 16.4588 31.7234 16.1354 31.4492 15.9285L16.7987 4.88071C16.4085 4.58648 15.871 4.58648 15.4808 4.88071L0.83027 15.9285C0.556052 16.1354 0.394867 16.4588 0.394867 16.8023V35.403C0.394867 36.0074 0.884832 36.4974 1.48924 36.4974H18.5462V37.8503C18.5462 39.0355 19.5105 39.9998 20.6957 39.9998H35.4558C36.641 39.9998 37.6053 39.0355 37.6053 37.8503V34.9826C37.6053 34.5991 37.5031 34.2395 37.3264 33.9275C37.5032 33.6154 37.6053 33.2558 37.6053 32.8723V30.0045C37.6053 29.621 37.5031 29.2614 37.3264 28.9493C37.5031 28.6373 37.6053 28.2777 37.6053 27.8942V25.0265ZM20.7348 35.0218H35.4164V37.8111H20.7348V35.0218ZM2.58361 17.3479L16.1397 7.12541L29.6958 17.3479V22.8771H20.6957C19.5105 22.8771 18.5462 23.8413 18.5462 25.0266V27.8945C18.5462 28.278 18.6485 28.6376 18.8252 28.9497C18.6485 29.2617 18.5462 29.6213 18.5462 30.0048V32.8727C18.5462 33.2562 18.6485 33.6157 18.8252 33.9278C18.757 34.0482 18.7002 34.1756 18.656 34.3089H2.58361V17.3479ZM35.4166 32.8331H20.735V30.0439H35.4166V32.8331ZM35.4166 27.8551H20.735V25.0659H35.4166V27.8551Z" fill="black"/>
<path d="M2.1482 13.0159L16.1397 2.4651L30.1312 13.0159C30.3287 13.1648 30.5599 13.2367 30.7894 13.2367C31.121 13.2367 31.4489 13.0864 31.664 12.8011C32.0279 12.3185 31.9318 11.6323 31.4492 11.2684L16.7987 0.22055C16.4085 -0.0736794 15.871 -0.0736794 15.4808 0.22055L0.830266 11.2684C0.347649 11.6323 0.251501 12.3185 0.615457 12.8011C0.979257 13.2836 1.66574 13.3796 2.1482 13.0159Z" fill="black"/>
</svg>
