<svg width="40" height="30" viewBox="0 0 40 30" fill="none" xmlns="http://www.w3.org/2000/svg">
<path d="M0.593285 12.1317L6.56312 15.0073V19.7945C6.56312 20.1971 6.79372 20.5641 7.1564 20.7389L18.5772 26.2403C18.719 26.3085 18.8745 26.344 19.0321 26.344H20.9512C21.1088 26.344 21.2642 26.3085 21.4062 26.2403L32.7954 20.754C33.0162 20.6475 33.1927 20.4672 33.2943 20.2442C33.3087 20.2127 33.3223 20.181 33.336 20.1491C33.3916 20.019 33.4203 19.8788 33.4203 19.7374V15.0073L35.0487 14.2229V20.7144C34.6963 20.9493 34.4247 21.3012 34.2931 21.7298L33.3666 24.7488C33.2525 25.1211 33.2556 25.5139 33.3758 25.8844L34.2349 28.5324C34.48 29.2877 35.1779 29.8116 35.9715 29.836C35.9768 29.8361 35.982 29.8362 35.9873 29.8363L36.0135 29.8367C36.0189 29.8368 36.0244 29.8368 36.0299 29.8368C36.8101 29.8368 37.4991 29.3677 37.7851 28.6416L38.7785 26.1199C38.9318 25.731 38.9512 25.296 38.833 24.8951L37.9068 21.7503C37.7777 21.3118 37.5038 20.9518 37.1451 20.7131V13.2132L39.4067 12.1237C39.7694 11.9489 40 11.582 40 11.1793V10.3445C40 9.94191 39.7694 9.57487 39.4067 9.40011L20.4465 0.267043C20.1589 0.128596 19.8241 0.128596 19.5366 0.267043L0.593285 9.39215C0.230606 9.56682 0 9.93386 0 10.3365V11.1873C0 11.5899 0.230606 11.9569 0.593285 12.1317ZM36.0488 27.33L35.3902 25.3005L36.0926 23.0116L36.8017 25.4186L36.0488 27.33ZM31.3238 19.1359L20.7119 24.2478H19.2713L8.65953 19.1359V16.0173L19.5367 21.2569C19.6805 21.3262 19.836 21.3607 19.9917 21.3607C20.1473 21.3607 20.3028 21.3262 20.4466 21.2569L31.3239 16.0174L31.3238 19.1359ZM19.9916 2.37486L37.4029 10.7619L32.0559 13.3376C32.0088 13.3525 31.9623 13.3701 31.9171 13.3918L19.9916 19.1364L8.06616 13.3918C8.02096 13.3701 7.97451 13.3525 7.92746 13.3376L2.58043 10.7619L19.9916 2.37486Z" fill="black"/>
</svg>
