<svg width="40" height="40" viewBox="0 0 40 40" fill="none" xmlns="http://www.w3.org/2000/svg">
<path d="M10.0388 26.3145C9.6873 26.0175 9.1616 26.0616 8.86434 26.4131C8.74965 26.5489 8.63614 26.6881 8.52707 26.8271C8.24286 27.1891 8.3059 27.7129 8.66793 27.9971C8.82051 28.117 9.00191 28.175 9.18191 28.175C9.42902 28.175 9.67348 28.0655 9.83793 27.8562C9.93465 27.7329 10.0354 27.6094 10.1372 27.489C10.4343 27.1374 10.3903 26.6116 10.0388 26.3145Z" fill="black"/>
<path d="M25.4139 9.98338C25.5719 10.1216 25.7673 10.1893 25.962 10.1893C26.1941 10.1893 26.4251 10.0929 26.5897 9.9044C26.7045 9.77315 26.8093 9.64174 26.9014 9.51369C27.1704 9.14026 27.0857 8.61948 26.7123 8.35042C26.3387 8.08143 25.8179 8.1662 25.549 8.53956C25.4873 8.62534 25.4151 8.71542 25.3348 8.80745C25.0319 9.15416 25.0674 9.68057 25.4139 9.98338Z" fill="black"/>
<path d="M39.1666 34.9995H37.8967C37.7552 31.9335 36.8342 28.9629 35.211 26.3614C33.6313 23.8298 31.4476 21.7359 28.8657 20.2631C28.9729 19.9817 29.0734 19.6686 29.1697 19.317H30.8877C32.4507 19.317 33.7223 18.0453 33.7223 16.4823V13.8563C33.7223 12.2933 32.4507 11.0217 30.8877 11.0217H30.592C30.6643 9.8898 30.6245 8.79942 30.3627 7.92333C29.64 5.50381 28.2688 3.48491 26.3969 2.08484C24.5736 0.721013 22.3615 7.81247e-05 20 0C17.6386 0 15.4265 0.720935 13.6029 2.08499C11.7313 3.48506 10.3598 5.50381 9.63699 7.92341C9.37527 8.7995 9.33551 9.88988 9.40785 11.0218H9.11238C7.54934 11.0218 6.27778 12.2934 6.27778 13.8564V16.4824C6.27778 18.0455 7.54934 19.3171 9.11238 19.3171H10.8302C10.9265 19.6688 11.0271 19.9819 11.1341 20.2633C8.55238 21.7359 6.36857 23.8299 4.78896 26.3616C3.16569 28.9633 2.24491 31.9336 2.10319 34.9996H0.833509C0.373276 34.9996 0.000152588 35.3728 0.000152588 35.833C0.000152588 36.2931 0.373276 36.6663 0.833509 36.6663H2.91686H8.38004L9.20191 39.4059C9.30769 39.7584 9.63207 39.9998 10.0001 39.9998H26.4005C26.4018 39.9998 26.403 40 26.4043 40C26.4062 40 26.4082 39.9998 26.4101 39.9998H29.9999C30.3678 39.9998 30.6924 39.7584 30.7981 39.4059L31.6199 36.6663H37.0832H39.1666C39.6268 36.6663 39.9999 36.2931 39.9999 35.833C39.9999 35.3727 39.6269 34.9995 39.1666 34.9995ZM29.7474 16.5096C29.7911 16.2437 29.8571 15.8998 29.9335 15.5015C30.091 14.6803 30.2787 13.7014 30.4187 12.6885H30.8878V12.6884C31.5317 12.6884 32.0557 13.2123 32.0557 13.8563V16.4823C32.0557 17.1263 31.5317 17.6503 30.8878 17.6503H29.546C29.6132 17.2983 29.6799 16.9195 29.7474 16.5096ZM9.11238 17.6502V17.6503C8.4684 17.6503 7.9445 17.1264 7.9445 16.4823V13.8563C7.9445 13.2123 8.4684 12.6884 9.11238 12.6884H9.58129C9.72129 13.7008 9.90886 14.6794 10.0663 15.5003C10.1427 15.8989 10.2088 16.2432 10.2525 16.5095C10.32 16.9195 10.3868 17.2982 10.4539 17.6502H9.11238ZM11.0717 10.9189C11.0087 9.96184 11.035 9.06637 11.234 8.40044C12.4749 4.24694 15.8337 1.66663 19.9999 1.66663C24.1665 1.66679 27.5254 4.24709 28.7657 8.40051C29.0153 9.23551 28.9938 10.4307 28.8645 11.6564C28.8488 11.7202 28.8396 11.7865 28.8396 11.8551C28.8396 11.8611 28.8405 11.8671 28.8406 11.8729C28.7028 13.069 28.4716 14.2753 28.2967 15.1874C28.2181 15.5972 28.1502 15.9511 28.1029 16.2388C27.9867 16.9444 27.8777 17.5399 27.7681 18.0491C26.539 19.1662 24.447 19.9309 22.3231 20.112C22.2629 19.7109 21.9179 19.4031 21.5 19.4031H19.9999C19.5398 19.4031 19.1666 19.7763 19.1666 20.2365V20.9031C19.1666 20.9121 19.1677 20.9209 19.168 20.9297C19.1684 20.9463 19.169 20.963 19.1704 20.9795C19.1715 20.9911 19.1732 21.0023 19.1748 21.0138C19.177 21.0297 19.1791 21.0455 19.182 21.061C19.1845 21.0734 19.1875 21.0857 19.1905 21.098C19.194 21.1119 19.1972 21.1258 19.2013 21.1395C19.2052 21.1529 19.2098 21.1658 19.2145 21.1788C19.2188 21.191 19.223 21.2034 19.2279 21.2153C19.2332 21.2288 19.2395 21.2419 19.2456 21.2551C19.2509 21.2662 19.2559 21.2774 19.2615 21.2881C19.2682 21.301 19.2757 21.3137 19.2831 21.3262C19.2894 21.3366 19.2955 21.3473 19.3021 21.3575C19.3099 21.3693 19.3182 21.3808 19.3266 21.3922C19.3341 21.4025 19.3416 21.4128 19.3495 21.4229C19.3578 21.4333 19.3666 21.4432 19.3754 21.4531C19.3844 21.4634 19.3934 21.4736 19.403 21.4834C19.4116 21.4923 19.4206 21.5008 19.4296 21.5093C19.4402 21.5193 19.4508 21.5292 19.4619 21.5386C19.4709 21.5462 19.4804 21.5534 19.4896 21.5608C19.5016 21.5699 19.5133 21.5791 19.5256 21.5877C19.5354 21.5944 19.5455 21.6006 19.5555 21.6069C19.568 21.6149 19.5806 21.6229 19.5936 21.63C19.6046 21.6362 19.6159 21.6418 19.6273 21.6474C19.6398 21.6537 19.6523 21.6601 19.6653 21.6659C19.6781 21.6714 19.6914 21.6764 19.7048 21.6816C19.7167 21.6861 19.7285 21.6907 19.7409 21.6948C19.7558 21.6997 19.7709 21.7036 19.7862 21.7076C19.7976 21.7106 19.8087 21.7138 19.8203 21.7164C19.8362 21.7199 19.8526 21.7224 19.8688 21.7251C19.8778 21.7265 19.8864 21.7287 19.8954 21.7298C19.9006 21.7305 19.9059 21.7309 19.9112 21.7315C19.9134 21.7317 19.9153 21.7319 19.9174 21.7323C20.3921 21.7913 20.8762 21.8202 21.3638 21.8202C23.2441 21.8202 25.1708 21.3947 26.7596 20.6553C26.3625 21.1508 25.8465 21.4794 25.1038 21.9517C24.7936 22.149 24.4429 22.372 24.0525 22.6362C22.7065 23.4085 21.3431 23.7999 19.9996 23.7999C18.6563 23.7999 17.2931 23.4086 15.9476 22.6367C15.5572 22.3726 15.2065 22.1494 14.8963 21.9521C13.4168 21.0109 12.8355 20.6411 12.3067 18.3831C12.2997 18.3251 12.2867 18.2689 12.2683 18.2149C12.1464 17.6707 12.0261 17.0224 11.8971 16.2388C11.8498 15.9509 11.7818 15.5965 11.7032 15.1863C11.5628 14.4541 11.386 13.5321 11.2505 12.5781C12.7805 12.3645 16.0609 11.8106 18.271 10.7503L18.8183 12.0633C18.8742 12.1976 18.9205 12.3157 18.9609 12.4187C19.1451 12.8875 19.319 13.3302 19.84 13.5058C19.9648 13.5479 20.0848 13.5666 20.2076 13.5665C20.499 13.5665 20.8064 13.4615 21.2325 13.316C21.3496 13.276 21.4816 13.2309 21.6307 13.1817C22.2086 12.9912 23.3684 12.416 24.467 11.6857C24.8503 11.4309 24.9544 10.9136 24.6995 10.5304C24.4446 10.1471 23.9273 10.0432 23.5442 10.2979C22.5193 10.9793 21.503 11.469 21.1083 11.5991C20.953 11.6504 20.8156 11.6974 20.6937 11.7389C20.633 11.7597 20.5698 11.7813 20.5091 11.8017C20.4657 11.6914 20.4162 11.5655 20.3566 11.4225L19.4515 9.25067C19.3562 9.02215 19.1643 8.84778 18.9277 8.77481C18.6909 8.70192 18.4343 8.73801 18.227 8.87325C16.4245 10.0489 12.7273 10.6837 11.0717 10.9189ZM30.2047 35.5839C30.2045 35.5849 30.2043 35.5859 30.2039 35.5868L29.38 38.3329H27.4897L27.8366 37.0379C27.9557 36.5933 27.6919 36.1364 27.2474 36.0173C26.8025 35.8981 26.3458 36.162 26.2268 36.6065L25.7643 38.3328H10.6202L9.79801 35.5924C9.79675 35.5882 9.79566 35.5841 9.79433 35.58L8.62004 31.6662H10.4569L10.9194 33.3924C11.0192 33.7648 11.3558 34.0103 11.7239 34.0103C11.7952 34.0103 11.8678 34.0011 11.94 33.9817C12.3846 33.8626 12.6485 33.4057 12.5292 32.961L12.1823 31.6661H31.38L30.2047 35.5839ZM32.1202 34.9995L33.2984 31.0725C33.3741 30.8201 33.326 30.5468 33.1688 30.3354C33.0114 30.1241 32.7636 29.9996 32.5002 29.9996H7.50012C7.23669 29.9996 6.9888 30.1241 6.83153 30.3354C6.67427 30.5468 6.6263 30.82 6.70192 31.0725L7.88012 34.9995H3.77115C4.05076 29.4525 7.11247 24.4765 11.944 21.7193C12.3049 22.1622 12.7382 22.5148 13.2814 22.8869C12.4692 23.3091 11.6944 23.8083 10.9779 24.3726C10.6164 24.6574 10.5541 25.1813 10.8389 25.5429C11.0034 25.7516 11.2475 25.8606 11.4941 25.8606C11.6745 25.8606 11.8564 25.8022 12.0092 25.6819C12.6637 25.1665 13.3728 24.7116 14.1175 24.3299L14.8892 23.934C14.9387 23.9671 14.987 23.999 15.0376 24.0333L15.0887 24.0654C16.6992 24.9951 18.3513 25.4665 19.9995 25.4665C19.9996 25.4665 19.9996 25.4665 19.9997 25.4665C21.6479 25.4665 23.3004 24.995 24.9111 24.065L24.9622 24.033C25.3426 23.775 25.6908 23.5534 25.9982 23.358C26.897 22.7865 27.5482 22.3423 28.0557 21.7192C32.8874 24.4765 35.9492 29.4525 36.2288 34.9994H32.1202V34.9995Z" fill="black"/>
<path d="M12.1877 34.9068C11.7431 35.026 11.4794 35.483 11.5986 35.9275L11.696 36.2904C11.7958 36.6627 12.1325 36.9082 12.5004 36.9082C12.5718 36.9082 12.6445 36.8989 12.7168 36.8795C13.1614 36.7603 13.425 36.3032 13.3058 35.8587L13.2085 35.4958C13.0892 35.0514 12.6328 34.7877 12.1877 34.9068Z" fill="black"/>
<path d="M27.4948 35.0921C27.5671 35.1115 27.6397 35.1208 27.7112 35.1208C28.079 35.1208 28.4158 34.8754 28.5156 34.5032L28.6129 34.1404C28.7323 33.6959 28.4686 33.2389 28.024 33.1196C27.5797 33.0001 27.1226 33.264 27.0033 33.7085L26.9059 34.0713C26.7865 34.5158 27.0502 34.9729 27.4948 35.0921Z" fill="black"/>
</svg>
