<svg width="40" height="40" viewBox="0 0 40 40" fill="none" xmlns="http://www.w3.org/2000/svg">
<g clip-path="url(#clip0_17_483)">
<path d="M36.404 29.0758H24.6581C22.6753 29.0758 21.0621 30.6889 21.0621 32.6717C21.0621 33.1188 21.4258 33.4825 21.8729 33.4825H39.1893C39.6363 33.4825 40.0001 33.1188 40.0001 32.6717C39.9999 30.6889 38.3868 29.0758 36.404 29.0758ZM22.8151 31.8888C23.1205 31.1727 23.8316 30.6694 24.6581 30.6694H36.404C37.2305 30.6694 37.9415 31.1726 38.2469 31.8888H22.8151Z" fill="black"/>
<path d="M36.0581 23.2354V10.869C37.0056 10.6191 37.7065 9.75479 37.7065 8.72979C37.7065 7.50988 36.7141 6.51746 35.4942 6.51746H25.5678C24.348 6.51746 23.3556 7.50988 23.3556 8.72979C23.3556 9.75479 24.0564 10.619 25.004 10.869V14.9745H17.2765C17.2362 14.5721 16.8967 14.2579 16.4837 14.2579H2.79468C1.25359 14.258 0 15.5116 0 17.0526C0 18.5936 1.25359 19.8472 2.79468 19.8472H16.4836C16.8966 19.8472 17.2362 19.5329 17.2764 19.1306H25.0039V23.2355C24.0564 23.4834 23.3555 24.3406 23.3555 25.3573C23.3555 26.5772 24.3479 27.5696 25.5678 27.5696H35.4942C36.7141 27.5696 37.7065 26.5772 37.7065 25.3573C37.7065 24.3406 37.0056 23.4834 36.0581 23.2354ZM15.6868 18.2536H2.79468C2.13242 18.2535 1.59367 17.7147 1.59367 17.0526C1.59367 16.3903 2.1325 15.8517 2.79468 15.8517H15.6868V18.2536ZM24.9492 8.72979C24.9492 8.38862 25.2267 8.11105 25.5678 8.11105H35.4942C35.8353 8.11105 36.113 8.38855 36.113 8.72979C36.113 9.07104 35.8355 9.34854 35.4942 9.34854H25.5678C25.2268 9.34854 24.9492 9.07097 24.9492 8.72979ZM34.4644 10.9421V23.1629H26.5975V10.9421H34.4644ZM17.2804 17.5369V16.5683H25.0039V17.5369H17.2804ZM35.4942 25.976H25.5678C25.2268 25.976 24.9492 25.6986 24.9492 25.3573C24.9492 25.0204 25.221 24.7566 25.5678 24.7566H35.4942C35.8412 24.7566 36.113 25.0205 36.113 25.3573C36.1129 25.6984 35.8354 25.976 35.4942 25.976Z" fill="black"/>
<path d="M32.9083 16.0956C32.4682 16.0956 32.1115 16.4524 32.1115 16.8924V21.5935C32.1115 22.0335 32.4682 22.3903 32.9083 22.3903C33.3484 22.3903 33.7051 22.0335 33.7051 21.5935V16.8924C33.7051 16.4525 33.3484 16.0956 32.9083 16.0956Z" fill="black"/>
<path d="M32.9083 13.6255C32.4682 13.6255 32.1115 13.9823 32.1115 14.4223V14.6613C32.1115 15.1013 32.4682 15.4581 32.9083 15.4581C33.3484 15.4581 33.7051 15.1013 33.7051 14.6613V14.4223C33.7051 13.9823 33.3484 13.6255 32.9083 13.6255Z" fill="black"/>
</g>
<defs>
<clipPath id="clip0_17_483">
<rect width="40" height="40" fill="white"/>
</clipPath>
</defs>
</svg>
