<svg width="40" height="34" viewBox="0 0 40 34" fill="none" xmlns="http://www.w3.org/2000/svg">
<path d="M23.5291 27.5439C25.1397 25.5969 25.8128 23.1952 25.2253 21.1539C25.1601 20.9273 25.0057 20.7367 24.7977 20.626C23.0462 19.6926 20.7638 19.7558 18.6189 20.7474C18.0807 18.4715 16.7306 16.6124 14.9116 15.805C14.6962 15.7096 14.4511 15.7052 14.2323 15.7933C12.316 16.5653 10.8653 18.4874 10.2883 20.8631C8.07459 19.7617 5.68561 19.6575 3.86838 20.626C3.66031 20.7368 3.50597 20.9273 3.4408 21.1539C2.85326 23.1951 3.52659 25.5971 5.137 27.5439C0.562752 28.3374 0 29.4939 0 30.3216C0 31.5617 1.43399 32.3906 4.64958 33.0095C7.2447 33.509 10.6837 33.7841 14.3331 33.7841C17.9824 33.7841 21.4214 33.509 24.0166 33.0095C27.2321 32.3906 28.6661 31.5617 28.6661 30.3216C28.666 29.4938 28.1032 28.3373 23.5291 27.5439ZM18.8672 22.5743C20.5005 21.6794 22.2905 21.4653 23.6349 22.0047C23.9479 23.8075 22.9274 26.0341 21.0508 27.5539C19.624 28.7095 17.8993 29.295 16.4101 29.2119C17.8928 27.8199 18.8309 25.5986 18.8736 23.1469C18.8771 22.9548 18.8748 22.7638 18.8672 22.5743ZM11.7598 23.0233C11.8018 20.6086 12.9278 18.4333 14.5411 17.5702C16.1232 18.4888 17.1731 20.702 17.1311 23.1167C17.0891 25.5313 15.9631 27.7066 14.3499 28.5698C12.7676 27.6511 11.718 25.4379 11.7598 23.0233ZM5.03097 22.0047C6.43824 21.44 8.33341 21.701 10.0264 22.7041C10.022 22.8 10.0189 22.8963 10.0171 22.993C9.97403 25.4826 10.8621 27.7673 12.3358 29.2067C10.8277 29.317 9.06735 28.7302 7.61506 27.5539C5.73848 26.0342 4.71793 23.8075 5.03097 22.0047ZM23.0911 31.4058C20.6791 31.8154 17.5688 32.0412 14.333 32.0412C11.0973 32.0412 7.98687 31.8155 5.57484 31.4058C3.16524 30.9964 2.22728 30.5461 1.88578 30.3192C2.34115 30.0209 3.66292 29.4848 6.62947 29.0764C6.65736 29.0726 6.68476 29.0674 6.71167 29.0611C9.10889 30.9063 12.0855 31.4615 14.3329 30.5034C16.5803 31.4613 19.5568 30.9064 21.9541 29.0611C21.981 29.0674 22.0085 29.0726 22.0365 29.0764C25.0029 29.4846 26.3247 30.0208 26.78 30.3191C26.4387 30.5461 25.5006 30.9964 23.0911 31.4058ZM34.1203 6.15165V2.98545C34.1203 1.45841 32.8779 0.215942 31.3507 0.215942H12.5465C11.0195 0.215942 9.77699 1.45831 9.77699 2.98545V6.15165C6.46438 6.5803 3.89724 9.41943 3.89724 12.8469V17.8678C3.89724 18.3491 4.28735 18.7392 4.76867 18.7392C5.24999 18.7392 5.6401 18.3491 5.6401 17.8678V12.8469C5.6401 10.0853 7.88675 7.83846 10.6484 7.83846H30.0741V9.71301H28.6421C28.1608 9.71301 27.7707 10.1031 27.7707 10.5844V17.2399C27.7707 17.7212 28.1608 18.1113 28.6421 18.1113H33.2488C33.7301 18.1113 34.1203 17.7212 34.1203 17.2399V10.5844C34.1203 10.1031 33.7301 9.71301 33.2488 9.71301H31.817V7.83846H33.2488C36.0104 7.83846 38.2572 10.0852 38.2572 12.8469V24.6065C38.2572 27.368 36.0105 29.6148 33.2488 29.6148H31.1808C30.6995 29.6148 30.3094 30.0049 30.3094 30.4862C30.3094 30.9675 30.6995 31.3576 31.1808 31.3576H33.2487C36.9714 31.3576 40 28.3291 40 24.6065V12.8469C40 9.41943 37.433 6.58021 34.1203 6.15165ZM32.3774 11.456V16.3685H29.5136V11.456H32.3774ZM32.3774 6.09559H11.5199V2.98535C11.5199 2.41921 11.9805 1.95871 12.5466 1.95871H31.3508C31.917 1.95871 32.3775 2.41921 32.3775 2.98535V6.09559H32.3774Z" fill="black"/>
</svg>
