<svg width="24" height="24" viewBox="0 0 24 24" fill="none" xmlns="http://www.w3.org/2000/svg">
<g clip-path="url(#clip0_134_205)">
<path d="M19.3008 14.1005V12.3286V6.77438C19.3008 6.57 19.2567 6.36984 19.1733 6.1875C19.1044 6.03422 19.0073 5.89312 18.8864 5.77172L14.2566 1.12172C14.1347 0.999375 13.9936 0.901875 13.8398 0.832031C13.6561 0.747656 13.455 0.703125 13.2492 0.703125H3.13641C2.35547 0.703125 1.72266 1.33594 1.72266 2.11687V19.5394C1.72266 20.3203 2.35547 20.9531 3.13641 20.9531H5.01469H13.395" stroke="black" stroke-width="1.7" stroke-miterlimit="10" stroke-linecap="round" stroke-linejoin="round"/>
<path d="M13.8398 0.832031V6.1875H19.1733" stroke="black" stroke-width="1.7" stroke-miterlimit="10" stroke-linecap="round" stroke-linejoin="round"/>
<path d="M17.5045 23.2969C20.1406 23.2969 22.2776 21.1599 22.2776 18.5238C22.2776 15.8877 20.1406 13.7507 17.5045 13.7507C14.8684 13.7507 12.7314 15.8877 12.7314 18.5238C12.7314 21.1599 14.8684 23.2969 17.5045 23.2969Z" stroke="black" stroke-width="1.7" stroke-miterlimit="10" stroke-linecap="round" stroke-linejoin="round"/>
<path d="M18.8909 17.1374L16.1182 19.9101" stroke="black" stroke-width="1.7" stroke-miterlimit="10" stroke-linecap="round" stroke-linejoin="round"/>
<path d="M16.1182 17.1374L18.8909 19.9101" stroke="black" stroke-width="1.7" stroke-miterlimit="10" stroke-linecap="round" stroke-linejoin="round"/>
<path d="M5.00391 3.55981H10.5586" stroke="black" stroke-width="1.7" stroke-miterlimit="10" stroke-linecap="round" stroke-linejoin="round"/>
<path d="M5.00391 6.37231H10.5586" stroke="black" stroke-width="1.7" stroke-miterlimit="10" stroke-linecap="round" stroke-linejoin="round"/>
<path d="M5.00391 9.18481H16.0195" stroke="black" stroke-width="1.7" stroke-miterlimit="10" stroke-linecap="round" stroke-linejoin="round"/>
<path d="M5.00391 11.9973H13.207" stroke="black" stroke-width="1.7" stroke-miterlimit="10" stroke-linecap="round" stroke-linejoin="round"/>
</g>
<defs>
<clipPath id="clip0_134_205">
<rect width="24" height="24" fill="white"/>
</clipPath>
</defs>
</svg>
