 <svg width="11" height="10" viewBox="0 0 11 10" fill="none" xmlns="http://www.w3.org/2000/svg">
                                                    <path d="M2.23714 10V3.31096H0.1566V10H2.23714ZM1.18568 2.41611C1.85682 2.41611 2.39374 1.85682 2.39374 1.18568C2.39374 0.536913 1.85682 0 1.18568 0C0.536913 0 0 0.536913 0 1.18568C0 1.85682 0.536913 2.41611 1.18568 2.41611ZM10.0224 10V6.3311C10.0224 4.54139 9.61969 3.15436 7.51678 3.15436C6.51007 3.15436 5.83893 3.71365 5.5481 4.22819H5.52573V3.31096H3.53468V10H5.61521V6.68904C5.61521 5.81656 5.77181 4.98881 6.84564 4.98881C7.91946 4.98881 7.94183 5.97315 7.94183 6.75615V10H10.0224Z" fill="#C3CCCD"/>
                                                </svg>     