<svg width="10" height="10" viewBox="0 0 10 10" fill="none" xmlns="http://www.w3.org/2000/svg">
                                                    <path d="M5.01116 2.42188C3.58259 2.42188 2.4442 3.58259 2.4442 4.98884C2.4442 6.41741 3.58259 7.5558 5.01116 7.5558C6.41741 7.5558 7.57812 6.41741 7.57812 4.98884C7.57812 3.58259 6.41741 2.42188 5.01116 2.42188ZM5.01116 6.66295C4.09598 6.66295 3.33705 5.92634 3.33705 4.98884C3.33705 4.07366 4.07366 3.33705 5.01116 3.33705C5.92634 3.33705 6.66295 4.07366 6.66295 4.98884C6.66295 5.92634 5.92634 6.66295 5.01116 6.66295ZM8.27009 2.33259C8.27009 1.99777 8.00223 1.72991 7.66741 1.72991C7.33259 1.72991 7.06473 1.99777 7.06473 2.33259C7.06473 2.66741 7.33259 2.93527 7.66741 2.93527C8.00223 2.93527 8.27009 2.66741 8.27009 2.33259ZM9.96652 2.93527C9.92188 2.1317 9.7433 1.41741 9.16295 0.837054C8.58259 0.256696 7.8683 0.078125 7.06473 0.0334821C6.23884 -0.0111607 3.76116 -0.0111607 2.93527 0.0334821C2.1317 0.078125 1.43973 0.256696 0.837054 0.837054C0.256696 1.41741 0.078125 2.1317 0.0334821 2.93527C-0.0111607 3.76116 -0.0111607 6.23884 0.0334821 7.06473C0.078125 7.8683 0.256696 8.56027 0.837054 9.16295C1.43973 9.7433 2.1317 9.92188 2.93527 9.96652C3.76116 10.0112 6.23884 10.0112 7.06473 9.96652C7.8683 9.92188 8.58259 9.7433 9.16295 9.16295C9.7433 8.56027 9.92188 7.8683 9.96652 7.06473C10.0112 6.23884 10.0112 3.76116 9.96652 2.93527ZM8.89509 7.93527C8.73884 8.3817 8.3817 8.71652 7.95759 8.89509C7.28795 9.16295 5.72545 9.09598 5.01116 9.09598C4.27455 9.09598 2.71205 9.16295 2.06473 8.89509C1.6183 8.71652 1.28348 8.3817 1.10491 7.93527C0.837054 7.28795 0.904018 5.72545 0.904018 4.98884C0.904018 4.27455 0.837054 2.71205 1.10491 2.04241C1.28348 1.6183 1.6183 1.28348 2.06473 1.10491C2.71205 0.837054 4.27455 0.904018 5.01116 0.904018C5.72545 0.904018 7.28795 0.837054 7.95759 1.10491C8.3817 1.26116 8.71652 1.6183 8.89509 2.04241C9.16295 2.71205 9.09598 4.27455 9.09598 4.98884C9.09598 5.72545 9.16295 7.28795 8.89509 7.93527Z" fill="#C3CCCD"/>
                                                </svg>         