 <svg
                                    width="16"
                                    height="16"
                                    viewBox="0 0 16 16"
                                    fill="none"
                                    xmlns="http://www.w3.org/2000/svg"
                                  >
                                    <path
                                      d="M12.8 1.4H3.2C1.432 1.4 0 2.74489 0 4.39956V12.0004C0 13.6551 1.432 15 3.2 15H12.8C14.568 15 16 13.6551 16 12.0004V4.39956C16 2.74489 14.568 1.4 12.8 1.4V1.4ZM5.2 4.55067C6.216 4.55067 7.048 5.33644 7.048 6.296C7.048 7.25555 6.216 8.04133 5.2 8.04133C4.184 8.04133 3.352 7.25555 3.352 6.296C3.352 5.33644 4.184 4.55067 5.2 4.55067ZM8.296 11.7209C8.224 11.7964 8.112 11.8418 8 11.8418H2.4C2.288 11.8418 2.176 11.7964 2.104 11.7209C2.032 11.6453 1.992 11.5396 2 11.4338C2.136 10.1644 3.208 9.15956 4.552 9.03867C4.976 9.00089 5.416 9.00089 5.84 9.03867C7.184 9.15956 8.264 10.1644 8.392 11.4338C8.408 11.5396 8.368 11.6453 8.296 11.7209ZM13.6 11.7889H12C11.672 11.7889 11.4 11.532 11.4 11.2222C11.4 10.9124 11.672 10.6556 12 10.6556H13.6C13.928 10.6556 14.2 10.9124 14.2 11.2222C14.2 11.532 13.928 11.7889 13.6 11.7889ZM13.6 8.76667H10.4C10.072 8.76667 9.8 8.50978 9.8 8.2C9.8 7.89022 10.072 7.63333 10.4 7.63333H13.6C13.928 7.63333 14.2 7.89022 14.2 8.2C14.2 8.50978 13.928 8.76667 13.6 8.76667ZM13.6 5.74444H9.6C9.272 5.74444 9 5.48756 9 5.17778C9 4.868 9.272 4.61111 9.6 4.61111H13.6C13.928 4.61111 14.2 4.868 14.2 5.17778C14.2 5.48756 13.928 5.74444 13.6 5.74444Z"
                                      fill="#5682ED"
                                    />
                                  </svg> 