<svg width="16" height="16" viewBox="0 0 16 16" fill="none" xmlns="http://www.w3.org/2000/svg">
                                                    <path d="M12 1.3999H4C1.6 1.3999 0 2.5999 0 5.3999V10.9999C0 13.7999 1.6 14.9999 4 14.9999H12C14.4 14.9999 16 13.7999 16 10.9999V5.3999C16 2.5999 14.4 1.3999 12 1.3999ZM4.8 12.7999H2.4C2.072 12.7999 1.8 12.5279 1.8 12.1999C1.8 11.8719 2.072 11.5999 2.4 11.5999H4.8C5.128 11.5999 5.4 11.8719 5.4 12.1999C5.4 12.5279 5.128 12.7999 4.8 12.7999ZM8 10.5999C6.67201 10.5999 5.6 9.5279 5.6 8.1999C5.6 6.8719 6.67201 5.7999 8 5.7999C9.328 5.7999 10.4 6.8719 10.4 8.1999C10.4 9.5279 9.328 10.5999 8 10.5999ZM13.6 4.7999H11.2C10.872 4.7999 10.6 4.5279 10.6 4.1999C10.6 3.8719 10.872 3.5999 11.2 3.5999H13.6C13.928 3.5999 14.2 3.8719 14.2 4.1999C14.2 4.5279 13.928 4.7999 13.6 4.7999Z" fill="#5682ED"/>
                                                </svg>  