<svg width="24" height="24" viewBox="0 0 24 24" fill="none" xmlns="http://www.w3.org/2000/svg">
<g clip-path="url(#clip0_132_18)">
<path d="M15.75 3.75C15.2322 3.75 14.8125 3.33028 14.8125 2.8125C14.8125 2.29556 14.3919 1.875 13.875 1.875H10.125C9.60806 1.875 9.1875 2.29556 9.1875 2.8125C9.1875 3.33028 8.76778 3.75 8.25 3.75C7.73222 3.75 7.3125 3.33028 7.3125 2.8125C7.3125 1.26169 8.57419 0 10.125 0H13.875C15.4258 0 16.6875 1.26169 16.6875 2.8125C16.6875 3.33028 16.2678 3.75 15.75 3.75Z" fill="#1A2747"/>
<path d="M19.3125 24H4.6875C2.10277 24 0 21.8972 0 19.3125V10.3125C0 7.72781 2.10277 5.625 4.6875 5.625H19.3125C21.8972 5.625 24 7.72781 24 10.3125V19.3125C24 21.8972 21.8972 24 19.3125 24ZM4.6875 7.5C3.13669 7.5 1.875 8.76169 1.875 10.3125V19.3125C1.875 20.8633 3.13669 22.125 4.6875 22.125H19.3125C20.8633 22.125 22.125 20.8633 22.125 19.3125V10.3125C22.125 8.76169 20.8633 7.5 19.3125 7.5H4.6875Z" fill="#1A2747"/>
<path d="M19.3125 9.1875C18.7947 9.1875 18.375 9.60722 18.375 10.125C18.375 11.6758 17.1133 12.9375 15.5625 12.9375H8.4375C6.88669 12.9375 5.625 11.6758 5.625 10.125C5.625 9.60722 5.20528 9.1875 4.6875 9.1875C4.16972 9.1875 3.75 9.60722 3.75 10.125C3.75 12.7097 5.85277 14.8125 8.4375 14.8125H11.0625V15.75C11.0625 16.2678 11.4822 16.6875 12 16.6875C12.5178 16.6875 12.9375 16.2678 12.9375 15.75V14.8125H15.5625C18.1472 14.8125 20.25 12.7097 20.25 10.125C20.25 9.60722 19.8303 9.1875 19.3125 9.1875Z" fill="#1A2747"/>
</g>
<defs>
<clipPath id="clip0_132_18">
<rect width="24" height="24" fill="white"/>
</clipPath>
</defs>
</svg>
