<svg width="24" height="24" viewBox="0 0 24 24" fill="none" xmlns="http://www.w3.org/2000/svg">
<path d="M14.1772 2.92282C14.1772 3.85738 13.4182 4.61497 12.4819 4.61497H6.57419C5.63793 4.61497 4.87891 3.85738 4.87891 2.92282V1.69215C4.87891 0.75759 5.63793 0 6.57419 0H12.4819C13.4182 0 14.1772 0.75759 14.1772 1.69215V2.92282ZM12.636 1.69215C12.636 1.60718 12.567 1.53831 12.4819 1.53831H6.57419C6.48906 1.53831 6.42009 1.60718 6.42009 1.69215V2.92282C6.42009 3.0078 6.48906 3.07667 6.57419 3.07667H12.4819C12.5671 3.07667 12.636 3.0078 12.636 2.92282V1.69215Z" fill="black"/>
<path d="M9.81055 12.5117H15.3073V14.05H9.81055V12.5117Z" fill="black"/>
<path d="M9.81055 7.89673H15.3073V9.43504H9.81055V7.89673Z" fill="black"/>
<path d="M9.81055 17.1779H12.3792V18.7163H9.81055V17.1779Z" fill="black"/>
<path d="M18.3504 24C15.6592 24 13.4697 21.8147 13.4697 19.1287C13.4697 16.4426 15.6592 14.2573 18.3504 14.2573C21.0416 14.2573 23.2311 16.4426 23.2311 19.1287C23.2311 21.8148 21.0416 24 18.3504 24ZM18.3504 15.7205C16.4676 15.7205 14.9358 17.2494 14.9358 19.1286C14.9358 21.0078 16.4676 22.5367 18.3504 22.5367C20.2332 22.5367 21.765 21.0078 21.765 19.1286C21.765 17.2494 20.2332 15.7205 18.3504 15.7205V15.7205Z" fill="black"/>
<path d="M18.2878 10.717H16.7466V3.36435C16.7466 3.21486 16.6009 3.07666 16.4628 3.07666H15.5137V1.5383H16.4628C17.4556 1.5383 18.2878 2.36133 18.2878 3.36435V10.717Z" fill="black"/>
<path d="M16.7461 11.8451H18.2873V13.1783H16.7461V11.8451Z" fill="black"/>
<path d="M12.6878 22.7159H2.56928C1.57686 22.7159 0.769531 21.9022 0.769531 20.9093V3.36435C0.769531 2.36138 1.57686 1.5383 2.56928 1.5383H3.69774V3.07661H2.56928C2.43153 3.07661 2.31071 3.21481 2.31071 3.3643V20.9093C2.31071 21.054 2.42671 21.1775 2.56928 21.1775H12.6878V22.7159H12.6878Z" fill="black"/>
<path d="M17.4002 20.6865L16.0059 19.2696L17.1043 18.1893L17.9473 19.0438L19.6388 17.3147L20.7413 18.3893L18.5007 20.6845C18.3566 20.8318 17.8592 21.1263 17.4002 20.6865V20.6865Z" fill="black"/>
<path d="M4.88524 19.4449L3.38867 17.818L4.52447 16.7791L5.45329 17.7904L7.66103 15.3891L8.79652 16.4293L6.02088 19.445C5.87493 19.6037 5.33929 19.87 4.88524 19.4449V19.4449Z" fill="black"/>
<path d="M4.88524 14.83L3.38867 13.2031L4.52447 12.1642L5.45329 13.1755L7.66103 10.7742L8.79652 11.8144L6.02088 14.8301C5.87493 14.9888 5.33929 15.2551 4.88524 14.83V14.83Z" fill="black"/>
<path d="M4.88524 10.1637L3.38867 8.53678L4.52447 7.49791L5.45329 8.50919L7.66103 6.10791L8.79652 7.14812L6.02088 10.1638C5.87493 10.3226 5.33929 10.5888 4.88524 10.1637V10.1637Z" fill="black"/>
</svg>
