<svg width="19" height="20" viewBox="0 0 19 20" fill="none" xmlns="http://www.w3.org/2000/svg">
<path d="M8.33414 20C9.84338 20 11.1059 18.9241 11.3958 17.5H5.27246C5.56253 18.9241 6.82504 20 8.33414 20Z" fill="black"/>
<path d="M14.1772 9.99927C14.1738 9.99927 14.1704 10 14.1671 10C10.9513 10 8.3338 7.3833 8.3338 4.16675C8.3338 3.2825 8.5372 2.44662 8.89136 1.69498C8.70795 1.67758 8.5221 1.66675 8.3338 1.66675C5.11221 1.66675 2.50052 4.27829 2.50052 7.50003V9.82333C2.50052 11.4725 1.77802 13.0292 0.510468 14.1008C0.0879518 14.4617 -0.0995788 15.0367 0.0520936 15.5976C0.22879 16.25 0.873779 16.6667 1.55051 16.6667H15.113C15.823 16.6667 16.4922 16.2067 16.6363 15.5109C16.748 14.9726 16.5563 14.435 16.1388 14.0842C14.9271 13.0684 14.2263 11.5758 14.1772 9.99927Z" fill="black"/>
<path d="M18.3343 4.16672C18.3343 6.4679 16.4689 8.33328 14.1675 8.33328C11.8664 8.33328 10.001 6.4679 10.001 4.16672C10.001 1.86554 11.8664 0 14.1675 0C16.4689 0 18.3343 1.86554 18.3343 4.16672Z" fill="#FF6868"/>
</svg>
