<svg width="16" height="16" viewBox="0 0 16 16" fill="none" xmlns="http://www.w3.org/2000/svg">
<g clip-path="url(#clip0_149_349)">
<path d="M10.0336 3.33332C10.6848 3.46037 11.2832 3.77883 11.7523 4.24795C12.2214 4.71707 12.5399 5.3155 12.6669 5.96666M10.0336 0.666656C11.3865 0.816947 12.648 1.42277 13.6111 2.38466C14.5742 3.34655 15.1816 4.60733 15.3336 5.95999M14.6669 11.28V13.28C14.6677 13.4657 14.6297 13.6494 14.5553 13.8196C14.4809 13.9897 14.3718 14.1424 14.235 14.2679C14.0982 14.3934 13.9367 14.489 13.7608 14.5485C13.5849 14.6079 13.3985 14.63 13.2136 14.6133C11.1622 14.3904 9.19161 13.6894 7.46028 12.5667C5.8495 11.5431 4.48384 10.1774 3.46028 8.56666C2.3336 6.82746 1.63244 4.84732 1.41361 2.78666C1.39695 2.6023 1.41886 2.4165 1.47795 2.24107C1.53703 2.06565 1.63199 1.90445 1.75679 1.76774C1.88159 1.63103 2.03348 1.5218 2.20281 1.447C2.37213 1.37221 2.55517 1.3335 2.74028 1.33332H4.74028C5.06382 1.33014 5.37748 1.44471 5.62279 1.65568C5.8681 1.86665 6.02833 2.15962 6.07361 2.47999C6.15803 3.12003 6.31458 3.74847 6.54028 4.35332C6.62998 4.59194 6.64939 4.85127 6.59622 5.10058C6.54305 5.34989 6.41952 5.57873 6.24028 5.75999L5.39361 6.60666C6.34265 8.27569 7.72458 9.65762 9.39361 10.6067L10.2403 9.75999C10.4215 9.58075 10.6504 9.45722 10.8997 9.40405C11.149 9.35088 11.4083 9.37029 11.6469 9.45999C12.2518 9.68569 12.8802 9.84224 13.5203 9.92666C13.8441 9.97234 14.1399 10.1355 14.3513 10.385C14.5627 10.6345 14.6751 10.953 14.6669 11.28Z" stroke="#878787" stroke-linecap="round" stroke-linejoin="round"/>
</g>
<defs>
<clipPath id="clip0_149_349">
<rect width="16" height="16" fill="white"/>
</clipPath>
</defs>
</svg>
