<svg width="14" height="18" viewBox="0 0 14 18" fill="none" xmlns="http://www.w3.org/2000/svg">
<path d="M6.99997 0.588501C9.19271 0.588501 10.9696 2.36589 10.9696 4.55758C10.9696 6.74979 9.19271 8.52665 6.99997 8.52665C4.80828 8.52665 3.03142 6.74979 3.03142 4.55758C3.03142 2.36589 4.80828 0.588501 6.99997 0.588501ZM6.99733 17.8622C4.81038 17.8622 2.8074 17.0657 1.26246 15.7474C0.886111 15.4264 0.668945 14.9557 0.668945 14.4618C0.668945 12.239 2.46794 10.4601 4.69126 10.4601H9.30973C11.5336 10.4601 13.3257 12.239 13.3257 14.4618C13.3257 14.9562 13.1096 15.4259 12.7327 15.7469C11.1883 17.0657 9.1848 17.8622 6.99733 17.8622Z" fill="black"/>
</svg>
